<mxfile host="65bd71144e">
    <diagram id="mCXSH18QpuFgLhwYrXi9" name="PÃ¡gina-1">
        <mxGraphModel dx="1820" dy="518" grid="1" gridSize="10" guides="1" tooltips="1" connect="1" arrows="1" fold="1" page="1" pageScale="1" pageWidth="827" pageHeight="1169" math="0" shadow="0">
            <root>
                <mxCell id="0"/>
                <mxCell id="1" parent="0"/>
                <mxCell id="4" value="" style="edgeStyle=none;html=1;" edge="1" parent="1" source="2" target="3">
                    <mxGeometry relative="1" as="geometry"/>
                </mxCell>
                <mxCell id="2" value="INICIO" style="ellipse;whiteSpace=wrap;html=1;fillColor=#6d8764;strokeColor=#3A5431;fontColor=#ffffff;" vertex="1" parent="1">
                    <mxGeometry x="40" y="40" width="120" height="80" as="geometry"/>
                </mxCell>
                <mxCell id="6" value="" style="edgeStyle=none;html=1;" edge="1" parent="1" source="3" target="5">
                    <mxGeometry relative="1" as="geometry"/>
                </mxCell>
                <mxCell id="3" value="h" style="shape=parallelogram;perimeter=parallelogramPerimeter;whiteSpace=wrap;html=1;fixedSize=1;fillColor=#e3c800;fontColor=#000000;strokeColor=#B09500;" vertex="1" parent="1">
                    <mxGeometry x="40" y="160" width="120" height="60" as="geometry"/>
                </mxCell>
                <mxCell id="8" value="" style="edgeStyle=none;html=1;" edge="1" parent="1" source="5" target="7">
                    <mxGeometry relative="1" as="geometry"/>
                </mxCell>
                <mxCell id="5" value="q = h/5&lt;br&gt;n = 0" style="whiteSpace=wrap;html=1;fillColor=#e51400;fontColor=#ffffff;strokeColor=#B20000;" vertex="1" parent="1">
                    <mxGeometry x="40" y="260" width="120" height="60" as="geometry"/>
                </mxCell>
                <mxCell id="10" value="" style="edgeStyle=none;html=1;" edge="1" parent="1" source="7" target="9">
                    <mxGeometry relative="1" as="geometry"/>
                </mxCell>
                <mxCell id="13" value="" style="edgeStyle=none;html=1;exitX=1;exitY=0.5;exitDx=0;exitDy=0;entryX=0.5;entryY=0;entryDx=0;entryDy=0;" edge="1" parent="1" source="7" target="12">
                    <mxGeometry relative="1" as="geometry">
                        <Array as="points">
                            <mxPoint x="260" y="405"/>
                        </Array>
                    </mxGeometry>
                </mxCell>
                <mxCell id="7" value="h &amp;gt; q" style="rhombus;whiteSpace=wrap;html=1;fillColor=#76608a;fontColor=#ffffff;strokeColor=#432D57;" vertex="1" parent="1">
                    <mxGeometry x="50" y="360" width="100" height="90" as="geometry"/>
                </mxCell>
                <mxCell id="9" value="h = h - (0.1*h)&lt;br&gt;n = n + 1&amp;nbsp;" style="whiteSpace=wrap;html=1;fillColor=#fa6800;strokeColor=#C73500;fontColor=#000000;" vertex="1" parent="1">
                    <mxGeometry x="40" y="500" width="120" height="60" as="geometry"/>
                </mxCell>
                <mxCell id="11" value="" style="endArrow=classic;html=1;exitX=0.5;exitY=1;exitDx=0;exitDy=0;" edge="1" parent="1" source="9">
                    <mxGeometry width="50" height="50" relative="1" as="geometry">
                        <mxPoint x="70" y="390" as="sourcePoint"/>
                        <mxPoint x="100" y="340" as="targetPoint"/>
                        <Array as="points">
                            <mxPoint x="100" y="620"/>
                            <mxPoint x="-20" y="620"/>
                            <mxPoint x="-20" y="340"/>
                        </Array>
                    </mxGeometry>
                </mxCell>
                <mxCell id="15" value="" style="edgeStyle=none;html=1;" edge="1" parent="1" source="12" target="14">
                    <mxGeometry relative="1" as="geometry"/>
                </mxCell>
                <mxCell id="12" value="n" style="shape=document;whiteSpace=wrap;html=1;boundedLbl=1;fillColor=#a0522d;strokeColor=#6D1F00;fontColor=#ffffff;" vertex="1" parent="1">
                    <mxGeometry x="220" y="450" width="80" height="60" as="geometry"/>
                </mxCell>
                <mxCell id="14" value="&lt;font color=&quot;#000000&quot;&gt;FIN&lt;/font&gt;" style="ellipse;whiteSpace=wrap;html=1;fillColor=#eeeeee;strokeColor=#36393d;" vertex="1" parent="1">
                    <mxGeometry x="200" y="590" width="120" height="60" as="geometry"/>
                </mxCell>
                <mxCell id="16" value="&lt;font color=&quot;#ff3333&quot;&gt;Falso&lt;/font&gt;" style="text;html=1;strokeColor=none;fillColor=none;align=center;verticalAlign=middle;whiteSpace=wrap;rounded=0;fontColor=#000000;" vertex="1" parent="1">
                    <mxGeometry x="140" y="380" width="60" height="30" as="geometry"/>
                </mxCell>
                <mxCell id="17" value="Verdadero" style="text;html=1;strokeColor=none;fillColor=none;align=center;verticalAlign=middle;whiteSpace=wrap;rounded=0;fontColor=#FF3333;" vertex="1" parent="1">
                    <mxGeometry x="100" y="450" width="60" height="30" as="geometry"/>
                </mxCell>
            </root>
        </mxGraphModel>
    </diagram>
</mxfile>